<?xml version="1.0" encoding="UTF-8"?>
<svg id="Layer_1" xmlns="http://www.w3.org/2000/svg" viewBox="0 0 860 317">
  <defs>
    <style>
      .cls-1 {
        fill: #fbfbfb;
      }
    </style>
  </defs>
  <path class="cls-1" d="M89.048393,247.129949l-16.034702-14.898323c-.185004-.170695-.197762-.56792-.025518-.752972l14.876835-16.0214c2.909021-3.134726,4.698451-6.984137,5.036561-10.844715.484837-5.543599-1.559771-10.876621-5.604331-14.633506-7.157722-6.6587-18.40785-6.235951-25.074356.925263l-12.631275,13.609336c-.806998.866237-1.859604,1.349607-3.106783,1.397466-1.097262.059025-2.156248-.330223-3.062127-1.170936l-13.224562-12.285253c-3.135491-2.909791-6.988667-4.69491-10.848224-5.028323-5.521398-.476989-10.857793,1.563375-14.608899,5.60422-3.754296,4.04244-5.393809,9.514252-4.503879,15.013183.621995,3.820696,2.685741,7.521747,5.811662,10.425157l16.028322,14.888751c.216901.201005.22966.5408.028707.756163l-14.876835,16.022995c-2.912211,3.12994-4.701641,6.980947-5.039751,10.84312-.484837,5.537218,1.556581,10.87024,5.601141,14.631911,3.285407,3.053366,7.572385,4.734792,12.066695,4.734792,4.924921,0,9.668029-2.062697,13.010851-5.66165l12.46541-13.427474c.794239-.85507,1.747964-1.397466,2.68893-1.526683,1.416234-.197815,2.634705.181862,3.645845,1.119887l13.607328,12.641001c3.473601,3.219276,7.817994,4.844866,12.730156,4.726815,4.736728-.175481,9.119398-2.183939,12.3442-5.656864,3.751106-4.040845,5.393809-9.506275,4.510258-14.99723-.621995-3.822292-2.682551-7.528128-5.811662-10.434728Z"/>
  <g>
    <path class="cls-1" d="M379.841958,55.525939h27.719044c1.594151,0,2.886466,1.292657,2.886466,2.88723v17.971787c5.687317-7.585097,13.086094-13.484617,22.196333-17.698559,9.110239-4.209553,19.194693-6.320914,30.253364-6.320914,14.744895,0,28.146951,3.612578,40.206168,10.824565,12.059217,7.216377,21.538078,17.04452,28.436583,29.471262,6.898504,12.431131,10.347756,26.179119,10.347756,41.243964,0,15.069235-3.449252,28.817223-10.347756,41.243964-6.898504,12.431131-16.377365,22.259275-28.436583,29.471262-12.059217,7.216377-25.461274,10.824565-40.206168,10.824565-10.532068,0-20.16891-1.948949-28.910526-5.846846-8.741616-3.893507-16.061403-9.424307-21.959361-16.592399v64.281373c0,1.594573-1.292315,2.88723-2.886466,2.88723h-29.298854c-1.594151,0-2.886466-1.292657-2.886466-2.88723V58.413169c0-1.594573,1.292315-2.88723,2.886466-2.88723ZM417.793585,158.793873c4.054846,7.326115,9.689502,13.063222,16.903969,17.224491,7.214466,4.165658,15.350489,6.241903,24.408067,6.241903s17.219931-2.076245,24.487057-6.241903c7.267127-4.161268,12.954443-9.898376,17.06195-17.224491,4.107506-7.321725,6.16126-15.617925,6.16126-24.888599,0-9.376023-2.053753-17.751234-6.16126-25.125634-4.107506-7.37001-9.794823-13.137844-17.06195-17.303502-7.267127-4.161268-15.429479-6.241903-24.487057-6.241903s-17.1936,2.080634-24.408067,6.241903c-7.214466,4.165658-12.849123,9.933492-16.903969,17.303502-4.054846,7.3744-6.082269,15.749611-6.082269,25.125634,0,9.270674,2.027423,17.566874,6.082269,24.888599Z"/>
    <path class="cls-1" d="M583.405961,133.589228l-47.124684-75.115352c-.804215-1.281895.116963-2.947937,1.629956-2.947937h35.888856c.668022,0,1.288249.346544,1.638537.91551l33.876222,55.02458,33.876222-55.02458c.350288-.568966.970515-.91551,1.638537-.91551h35.256932c1.512993,0,2.434171,1.666043,1.629956,2.947937l-47.124684,75.115352,50.154224,75.707328c.847634,1.279495-.069579,2.988053-1.60409,2.988053h-36.751973c-.657437,0-1.269376-.335728-1.622732-.890277l-36.084316-56.630041-36.399449,56.636359c-.354074.550927-.963915.883959-1.618688.883959h-36.112916c-1.536938,0-2.453663-1.71337-1.601123-2.992518l50.455213-75.702862Z"/>
    <path class="cls-1" d="M697.954286,55.525939h27.719044c1.594151,0,2.886466,1.292657,2.886466,2.88723v17.971787c5.687317-7.585097,13.086094-13.484617,22.196333-17.698559,9.110239-4.209553,19.194693-6.320914,30.253364-6.320914,14.744895,0,28.146951,3.612578,40.206168,10.824565,12.059217,7.216377,21.538078,17.04452,28.436583,29.471262,6.898504,12.431131,10.347756,26.179119,10.347756,41.243964,0,15.069235-3.449252,28.817223-10.347756,41.243964-6.898504,12.431131-16.377365,22.259275-28.436583,29.471262-12.059217,7.216377-25.461274,10.824565-40.206168,10.824565-10.532068,0-20.16891-1.948949-28.910526-5.846846-8.741616-3.893507-16.061403-9.424307-21.959361-16.592399v64.281373c0,1.594573-1.292315,2.88723-2.886466,2.88723h-29.298854c-1.594151,0-2.886466-1.292657-2.886466-2.88723V58.413169c0-1.594573,1.292315-2.88723,2.886466-2.88723ZM735.905913,158.793873c4.054846,7.326115,9.689502,13.063222,16.903969,17.224491,7.214466,4.165658,15.350489,6.241903,24.408067,6.241903s17.219931-2.076245,24.487057-6.241903c7.267127-4.161268,12.954443-9.898376,17.06195-17.224491,4.107506-7.321725,6.16126-15.617925,6.16126-24.888599,0-9.376023-2.053753-17.751234-6.16126-25.125634-4.107506-7.37001-9.794823-13.137844-17.06195-17.303502-7.267127-4.161268-15.429479-6.241903-24.487057-6.241903s-17.1936,2.080634-24.408067,6.241903c-7.214466,4.165658-12.849123,9.933492-16.903969,17.303502-4.054846,7.3744-6.082269,15.749611-6.082269,25.125634,0,9.270674,2.027423,17.566874,6.082269,24.888599Z"/>
  </g>
  <path class="cls-1" d="M167.8954,0C93.046941,0,30.509032,55.343442,16.817729,128.392558c-2.933136,15.649203,9.098417,30.108982,24.901255,30.108982,12.072729,0,22.565367-8.580213,24.795813-20.537582,9.232336-49.494285,51.180184-86.978081,101.380603-86.978081,56.944862,0,103.270093,48.232495,103.270093,107.515663s-46.325232,107.512776-103.270093,107.512776c-8.078246,0-15.995635-.94692-23.689826-2.826518-11.704837-2.858852-23.795653,2.849999-28.946535,13.820993-6.852578,14.594311,1.303017,31.8808,16.868803,35.701777,11.62056,2.852501,23.574763,4.289433,35.767558,4.289433,84.838901,0,153.862264-71.101001,153.862264-158.49846S252.734301,0,167.8954,0Z"/>
</svg>